<?xml version="1.0" encoding="utf-8"?>
<!-- Generator: Adobe Illustrator 23.0.5, SVG Export Plug-In . SVG Version: 6.00 Build 0)  -->
<svg version="1.1" id="Camada_1" xmlns="http://www.w3.org/2000/svg" xmlns:xlink="http://www.w3.org/1999/xlink" x="0px" y="0px"
	 viewBox="0 0 15 15" style="enable-background:new 0 0 15 15;" xml:space="preserve">
<style type="text/css">
	.st0{fill:#BEBFC4;}
</style>
<g>
	<path class="st0" d="M7.4,0C3.4,0,0,3.3,0,7.5C0,11.6,3.4,15,7.5,15c4.1,0,7.5-3.4,7.5-7.5C15,3.4,11.6,0,7.4,0z M7.5,13.4
		c-3.2,0-5.9-2.6-5.9-5.9c0-3.2,2.6-5.9,5.9-5.9c3.2,0,5.9,2.6,5.9,5.9C13.4,10.8,10.8,13.4,7.5,13.4z"/>
	<path class="st0" d="M8.6,6.1c0,0.3,0,0.6,0,0.9c0,0.5-0.3,0.9-0.8,1.1C7.2,8.2,6.6,7.8,6.5,7.2c-0.1-0.3,0-0.5,0-0.8
		c0-0.5,0-0.9,0-1.4c0-0.6,0.5-1,1-1.1c0.3,0,0.6,0.1,0.8,0.4c0.2,0.2,0.3,0.4,0.3,0.7C8.6,5.4,8.6,5.7,8.6,6.1z"/>
	<path class="st0" d="M8.6,10c0,0.6-0.5,1-1,1c-0.4,0-0.8-0.1-1-0.5C6.2,9.9,6.6,9.1,7.3,9c0.3,0,0.6,0,0.9,0.2
		C8.4,9.4,8.6,9.7,8.6,10z"/>
</g>
</svg>
